<?xml version="1.0" encoding="UTF-8"?>
<svg width="40px" height="40px" viewBox="0 0 40 40" version="1.1" xmlns="http://www.w3.org/2000/svg" xmlns:xlink="http://www.w3.org/1999/xlink">
    <!-- Generator: sketchtool 56.3 (101010) - https://sketch.com -->
    <title>FAE495AA-F79C-461E-B07D-A8935CDC2B15</title>
    <desc>Created with sketchtool.</desc>
    <g id="Style-guide" stroke="none" stroke-width="1" fill="none" fill-rule="evenodd">
        <g id="00-Styleguide" transform="translate(-592.000000, -2818.000000)" fill="#D18B2F" fill-rule="nonzero">
            <path d="M610.606217,2845.17791 C610.271313,2845.51213 609.72877,2845.51213 609.393532,2845.17791 C609.059299,2844.84269 609.059299,2844.30017 609.393532,2843.96495 C609.72877,2843.63073 610.271313,2843.63073 610.606217,2843.96495 C610.940785,2844.30017 610.940785,2844.84269 610.606217,2845.17791 Z M606.857143,2826.57128 C606.857143,2821.84508 610.70229,2818 615.428571,2818 C620.154853,2818 624,2821.84508 624,2826.57128 C624,2831.29747 620.154853,2835.14286 615.428571,2835.14286 C610.70229,2835.14286 606.857143,2831.29747 606.857143,2826.57128 Z M622.441724,2826.57128 C622.441724,2822.70458 619.29564,2819.55855 615.428571,2819.55855 C611.561503,2819.55855 608.415418,2822.70458 608.415418,2826.57128 C608.415418,2830.43828 611.561503,2833.5843 615.428571,2833.5843 C619.29564,2833.5843 622.441724,2830.43828 622.441724,2826.57128 Z M600.99901,2857.76888 L592.226741,2848.92645 C591.923912,2848.62107 591.924522,2848.12848 592.227962,2847.82401 L595.944637,2844.09495 C596.508167,2843.53121 597.291493,2843.30645 598.034217,2843.44723 C599.797157,2840.18816 603.082179,2838.4499 606.84434,2838.4499 C608.201575,2838.4499 609.516988,2838.71254 610.756694,2839.23138 L619.468824,2839.23138 C620.427986,2839.23138 621.315714,2839.67816 621.897866,2840.3949 L626.508069,2835.65471 C627.623225,2834.3611 629.583675,2834.2026 630.892372,2835.30596 C632.209312,2836.4197 632.375684,2838.39616 631.263582,2839.71237 C623.765514,2848.67726 624.232274,2848.12726 624.177935,2848.18009 C622.857638,2849.46546 621.116067,2850.17334 619.273451,2850.17334 L608.887214,2850.17334 C608.276672,2850.17334 607.699099,2850.40696 607.260424,2850.83084 L606.445656,2851.6169 C606.728642,2852.44541 606.532963,2853.39852 605.889452,2854.04227 L602.101649,2857.7753 C601.794851,2858.07763 601.301838,2858.07427 600.99901,2857.76888 Z M606.844034,2840.01287 C603.505285,2840.01287 600.821037,2841.53979 599.390536,2844.22443 L605.511221,2850.34711 L606.175186,2849.7061 C606.906004,2848.99975 607.86944,2848.61038 608.887214,2848.61038 L619.273451,2848.61038 C620.693572,2848.61038 622.03707,2848.06954 623.060338,2847.08681 L630.067835,2838.70643 C630.626176,2838.04527 630.542837,2837.05704 629.884672,2836.50032 C629.227119,2835.94574 628.238651,2836.02911 627.681837,2836.68661 C627.654973,2836.71867 627.026114,2837.36304 622.566409,2841.94901 C622.584115,2842.08399 622.593884,2842.22019 622.593884,2842.35761 C622.593884,2844.08151 621.192079,2845.48384 619.468824,2845.48384 L613.094459,2845.48384 C612.663111,2845.48384 612.313271,2845.13418 612.313271,2844.70236 C612.313271,2844.27085 612.663111,2843.92088 613.094459,2843.92088 L619.468824,2843.92088 C620.330604,2843.92088 621.031507,2843.21972 621.031507,2842.35761 C621.031507,2841.48574 620.315951,2840.79465 619.468824,2840.79465 L610.596732,2840.79465 C610.488971,2840.79465 610.382431,2840.77236 610.283523,2840.72899 C609.197674,2840.25381 608.040697,2840.01287 606.844034,2840.01287 Z M597.050329,2845.19953 L593.883141,2848.37706 L601.559793,2856.11522 L604.78895,2852.9328 C605.080178,2852.64147 605.096968,2852.14369 604.784676,2851.83128 C597.764663,2844.81841 598.152968,2845.17205 598.017732,2845.08959 C597.703609,2844.89537 597.307977,2844.94179 597.050329,2845.19953 Z M614.556033,2821.77573 C614.556033,2821.34726 614.893597,2821 615.309809,2821 C615.72602,2821 616.063584,2821.34726 616.063584,2821.77573 L616.063584,2822.67902 C616.408217,2822.7966 616.791143,2823.01204 617.173775,2823.39293 C617.472751,2823.6908 617.480705,2824.18169 617.191154,2824.48956 C616.901603,2824.79712 616.424418,2824.8053 616.125146,2824.50744 C615.858866,2824.24229 615.576973,2824.102 615.309809,2824.102 C614.894187,2824.102 614.556033,2824.45017 614.556033,2824.87772 C614.556033,2825.30528 614.894187,2825.65315 615.309809,2825.65315 C616.556969,2825.65315 617.571429,2826.69674 617.571429,2827.97972 C617.571429,2828.99059 616.941073,2829.85268 616.063584,2830.17297 L616.063584,2831.08172 C616.063584,2831.51019 615.72602,2831.85714 615.309809,2831.85714 C614.893597,2831.85714 614.556033,2831.51019 614.556033,2831.08172 L614.556033,2830.1766 C614.053811,2830.00328 613.579867,2829.65965 613.17691,2829.16664 C612.908862,2828.83878 612.950101,2828.34971 613.268813,2828.07396 C613.587525,2827.79852 614.062942,2827.84064 614.330991,2828.1685 C614.639983,2828.54697 614.987856,2828.75515 615.309809,2828.75515 C615.725431,2828.75515 616.063584,2828.40728 616.063584,2827.97972 C616.063584,2827.55216 615.725431,2827.2043 615.309809,2827.2043 C614.062648,2827.2043 613.048188,2826.1604 613.048188,2824.87772 C613.048188,2823.86655 613.678544,2823.00447 614.556033,2822.68448 L614.556033,2821.77573 Z" id="Combined-Shape-5"></path>
        </g>
    </g>
</svg>