<?xml version="1.0" encoding="UTF-8"?>
<svg width="85px" height="59px" viewBox="0 0 85 59" version="1.1" xmlns="http://www.w3.org/2000/svg" xmlns:xlink="http://www.w3.org/1999/xlink">
    <!-- Generator: sketchtool 56.3 (101010) - https://sketch.com -->
    <title>1CC94D6C-B61F-454A-96A0-BFDDD3FBBB3C</title>
    <desc>Created with sketchtool.</desc>
    <g id="SITE" stroke="none" stroke-width="1" fill="none" fill-rule="evenodd">
        <g id="05-sejafran" transform="translate(-1118.000000, -668.000000)" fill="#889BAF" fill-rule="nonzero">
            <g id="Group-10" transform="translate(1110.000000, 649.000000)">
                <g id="003-mailing" transform="translate(8.000000, 19.000000)">
                    <path d="M84.8510433,36.2730065 L70.2782326,1.20032556 C70.0803505,0.723876285 69.700708,0.345412766 69.2227745,0.148145138 C68.744841,-0.0493817126 68.2081409,-0.0493817126 67.7302075,0.148145138 L19.2038372,20.1864924 C18.7259037,20.38376 18.3462613,20.7622235 18.1483791,21.2386728 C17.950497,21.7151221 17.950497,22.2504146 18.1486391,22.7266047 L32.7235301,57.7992856 C33.0345249,58.5481768 33.7607862,59 34.5260518,59 C34.7748997,59 35.027648,58.952044 35.2715553,58.851466 L83.7958453,38.8131188 C84.7907166,38.4022526 85.2631895,37.2650475 84.8510433,36.2730065 Z M54.4372599,36.5654084 L24.7736605,22.0951409 L65.1457783,5.42408212 L54.4372599,36.5654084 Z M54.7082103,41.0263527 C54.9781205,41.1582965 55.2714333,41.224398 55.5652662,41.224398 C55.8185345,41.224398 56.0723229,41.1754051 56.3118097,41.0763825 C56.8287476,40.8630431 57.2286723,40.4384382 57.4101726,39.910663 L61.5888402,27.7580957 L78.3864599,36.8381095 L37.6950264,53.6418898 L43.1324949,35.3797289 L54.7082103,41.0263527 Z M79.2115323,32.8608727 L62.8718238,24.0284155 L68.6091058,7.34361799 L79.2115323,32.8608727 Z M23.6862188,25.8932556 L39.5802374,33.6465733 L34.2907255,51.4118064 L23.6862188,25.8932556 Z" id="Shape"></path>
                    <path d="M1.92189422,30 L13.0781058,30 C14.1395039,30 15,29.1048 15,28 C15,26.8952 14.1395039,26 13.0781058,26 L1.92189422,26 C0.860496105,26 0,26.8952 0,28 C0,29.1045333 0.860496105,30 1.92189422,30 Z" id="Path"></path>
                    <path d="M21.0741965,49 L1.92580353,49 C0.862246436,49 0,49.8952 0,51 C0,52.1048 0.862246436,53 1.92580353,53 L21.0741965,53 C22.1377536,53 23,52.1048 23,51 C23,49.8952 22.1377536,49 21.0741965,49 Z" id="Path"></path>
                    <path d="M1.92414156,42 L17.0758584,42 C18.1384977,42 19,41.1048 19,40 C19,38.8952 18.1384977,38 17.0758584,38 L1.92414156,38 C0.861502316,38 0,38.8952 0,40 C0,41.1048 0.861502316,42 1.92414156,42 Z" id="Path"></path>
                </g>
            </g>
        </g>
    </g>
</svg>