<?xml version="1.0" encoding="UTF-8"?>
<svg width="70px" height="65px" viewBox="0 0 70 65" version="1.1" xmlns="http://www.w3.org/2000/svg" xmlns:xlink="http://www.w3.org/1999/xlink">
    <!-- Generator: sketchtool 56.3 (101010) - https://sketch.com -->
    <title>F79F7B47-F8D3-4584-AB32-A73101AB4053</title>
    <desc>Created with sketchtool.</desc>
    <g id="SITE" stroke="none" stroke-width="1" fill="none" fill-rule="evenodd">
        <g id="05-sejafran" transform="translate(-685.000000, -669.000000)" fill="#889BAF" fill-rule="nonzero">
            <g id="Group-9" transform="translate(669.000000, 649.000000)">
                <g id="002-review" transform="translate(16.000000, 20.000000)">
                    <path d="M65.5513001,26.5101007 L54.7622681,26.5101007 L54.7622681,5.75244982 C54.7622681,2.58055325 52.193985,0 49.0371704,0 L5.72509766,0 C2.56828305,0 0,2.58055325 0,5.75244982 L0,37.4891234 C0,40.6610199 2.56828305,43.2415732 5.72509766,43.2415732 L9.9340057,43.2415732 L12.9888153,55.5170435 C13.180542,56.2902973 13.7893677,56.8880799 14.5626831,57.0640877 C14.7170257,57.0989672 14.8719025,57.1161387 15.0262451,57.1161387 C15.6452179,57.1156022 16.2422943,56.8403216 16.6460418,56.348251 L27.4078369,43.2415732 L33.0421448,43.2415732 L33.0421448,51.5413064 C33.0421448,54.0059522 35.0373841,56.0112605 37.4908447,56.0112605 L51.647644,56.0112605 L58.3981323,64.2326489 C58.8024139,64.7247194 59.3994904,65 60.0184632,65 C60.1722718,65 60.3276825,64.9828285 60.4814911,64.9479488 C61.2548065,64.7724777 61.8636322,64.1741585 62.0558929,63.4014414 L63.8946533,56.0112605 L65.5513001,56.0112605 C68.0042267,56.0112605 70,54.0059522 70,51.5413064 L70,30.9800546 C70,28.5148723 68.0042267,26.5101007 65.5513001,26.5101007 L65.5513001,26.5101007 Z M26.417694,39.0211424 C25.7907104,39.0211424 25.1968384,39.3023255 24.7978973,39.7884934 L16.054306,50.4369649 L13.6115265,40.6197009 C13.3781432,39.6800983 12.5380706,39.0211424 11.5740967,39.0211424 L5.72509766,39.0211424 C4.8844909,39.0211424 4.20089715,38.3337461 4.20089715,37.4891234 L4.20089715,5.75244982 C4.20089715,4.90782699 4.8844909,4.22043074 5.72509766,4.22043074 L49.0371704,4.22043074 C49.877777,4.22043074 50.5613708,4.90782699 50.5613708,5.75244982 L50.5613708,37.4891234 C50.5613708,38.3337461 49.877777,39.0211424 49.0371704,39.0211424 L26.417694,39.0211424 Z M65.7991029,51.5413064 C65.7991029,51.6786784 65.6880189,51.7902931 65.5513001,51.7902931 L62.2550964,51.7902931 C61.2911224,51.7902931 60.4510498,52.4497858 60.2176667,53.3888517 L58.9898682,58.3208262 L54.2581177,52.5576442 C53.8591766,52.072013 53.2647705,51.7902931 52.638321,51.7902931 L37.4908447,51.7902931 C37.354126,51.7902931 37.242508,51.6786784 37.242508,51.5413064 L37.242508,43.2415732 L49.0371704,43.2415732 C52.193985,43.2415732 54.761734,40.6610199 54.761734,37.4891234 L54.761734,30.7305314 L65.5513001,30.7305314 C65.6880189,30.7305314 65.7991029,30.8421461 65.7991029,30.9800546 L65.7991029,51.5413064 Z" id="Shape"></path>
                    <path d="M33.7329721,34 C33.3978544,34 33.0616661,33.9200138 32.7533151,33.7573764 L27.0001058,30.7246998 L21.246361,33.7573764 C20.5370466,34.1314959 19.6778393,34.0692322 19.0290173,33.5963493 C18.3807306,33.1245401 18.0563197,32.3236986 18.1917586,31.5319822 L19.2907945,25.1080754 L14.6355503,20.5590604 C14.0622102,19.9981494 13.8555721,19.1591983 14.1028953,18.3948565 C14.3507539,17.6310513 15.0097472,17.0738977 15.8025733,16.9584949 L22.2351186,16.0213174 L25.111991,10.1765712 C25.466916,9.45624345 26.1987142,9 27.0001058,9 C27.8014973,9 28.5332957,9.45624345 28.8876852,10.1765712 L31.7645575,16.0213174 L38.1971027,16.9584949 C38.9904643,17.0738977 39.6494576,17.6310513 39.8967808,18.3948565 C40.1446394,19.1591983 39.9380014,19.9981494 39.3641259,20.5590604 L34.7094171,25.1080754 L35.8079176,31.5319822 C35.9433565,32.3236986 35.6189455,33.1245401 34.9706589,33.5963493 C34.6039566,33.864191 34.1698027,34 33.7329721,34 L33.7329721,34 Z M18.3639006,20.1669831 L21.6072307,23.0838009 C22.2799912,23.6883192 22.5869789,24.5599504 22.4280419,25.4141757 L21.6623869,29.531997 L25.6720977,27.587898 C26.5030694,27.1842163 27.4966067,27.1842163 28.3283043,27.587898 L32.3372894,29.531997 L31.5716342,25.4141757 C31.4126974,24.5599504 31.719685,23.6883192 32.3924456,23.0838009 L35.6357755,20.1669831 L31.1536082,19.5658119 C30.2239359,19.441293 29.4198165,18.9030509 29.0046935,18.1258129 L27.0002011,14.3788701 L24.9957084,18.1258129 C24.579134,18.9030509 23.7757403,19.441293 22.8460679,19.5658119 L18.3639006,20.1669831 Z" id="Shape"></path>
                </g>
            </g>
        </g>
    </g>
</svg>