<?xml version="1.0" encoding="UTF-8"?>
<svg width="233px" height="75px" viewBox="0 0 233 75" version="1.1" xmlns="http://www.w3.org/2000/svg" xmlns:xlink="http://www.w3.org/1999/xlink">
    <!-- Generator: sketchtool 56.3 (101010) - https://sketch.com -->
    <title>437A5CC3-0982-4C78-8A59-F995AC0F71E0</title>
    <desc>Created with sketchtool.</desc>
    <g id="Style-guide" stroke="none" stroke-width="1" fill="none" fill-rule="evenodd">
        <g id="00-Styleguide" transform="translate(-170.000000, -101.000000)">
            <g id="Ativo-1" transform="translate(170.000000, 101.000000)">
                <path d="M124.784599,25.5388006 C127.525014,20.4508099 130.043391,15.7991012 132.602669,11 C133.186979,11.8371897 132.947412,12.5151954 132.947412,13.1460354 C132.947412,32.9791762 132.947412,52.8064213 133,72.639562 C133,74.4967081 132.58514,75.0391126 130.691975,74.9978427 C122.470731,74.8858244 114.249488,74.9153029 106.028244,74.9978427 C104.491508,74.9978427 104.000688,74.6323092 104.006531,73.0109912 C104.072753,58.9084726 104.072753,44.805954 104.006531,30.7034353 C103.932071,29.5794334 104.498993,28.5108895 105.467306,27.9501426 C109.832103,24.9197519 114.1969,21.8775698 118.438991,18.670308 C119.940668,17.5383333 120.472391,17.9864066 121.196935,19.3777922 C122.237007,21.3646437 123.440686,23.2453726 124.784599,25.5388006 Z" id="Path" fill="#234D75"></path>
                <path d="M93.959246,35.8985552 L93.959246,37.1920963 C93.959246,49.0809152 93.9243139,60.9638543 94,72.8585529 C94,74.5342767 93.5924596,75.0281742 91.8982557,74.9987755 C83.6251848,74.9105795 75.3579359,74.9340985 67.084865,74.9987755 C65.6468294,74.9987755 64.9772987,74.7812254 65.0005867,73.0702233 C65.1577809,62.6924957 65.216001,52.314768 65.262577,41.9076417 C65.1912858,41.0061449 65.6459646,40.1451692 66.4269783,39.7027421 C69.1342112,37.9858602 71.8298001,36.2395797 74.4729909,34.4109829 C75.3812239,33.7818516 75.7829424,33.8230097 76.2195928,34.8990007 C77.28502,37.5390005 78.6299034,40.0790449 79.5439584,42.7660826 C80.2775312,44.9357039 81.051858,44.7534322 82.5946897,43.5598465 C85.616311,41.2432319 88.7660164,39.0912499 91.8807897,36.8981097 C92.4629903,36.5218068 92.9403949,35.8632768 93.959246,35.8985552 Z" id="Path" fill="#254D76"></path>
                <path d="M0,74.5212319 L5.06294102,71.2878241 C29.0506577,56.0418163 53.0266138,40.782091 76.9908093,25.5086483 C78.7960624,24.3328636 79.4311351,24.5797784 80.0838488,26.5139441 C80.824767,28.7185404 81.8949821,30.7996792 82.7476261,32.9807598 C83.1886488,34.0977552 83.6296716,34.3152754 84.6940064,33.5686521 C95.2197491,26.1847244 105.770973,18.8341107 116.347678,11.5168108 C117.488457,10.729035 117.294407,10.1705373 116.712257,9.16524145 C115.853733,7.72490523 113.872071,6.25517441 114.518904,4.85599066 C114.959927,3.909484 117.459056,3.89184723 119.082019,3.52735399 C124.197883,2.35156933 129.319627,1.25808959 135,0 C131.189564,7.01355551 127.602579,13.5626761 123.986192,20.235254 C122.817764,19.1003681 121.875865,17.7536883 121.210689,16.2669808 C120.363925,14.644398 119.640648,14.8148867 118.3117,15.7555145 C107.021518,23.7508502 95.6784128,31.6697599 84.3470686,39.6239431 C81.6362488,41.5287143 81.6480094,41.5404721 80.2778988,38.3776114 C79.4428957,36.4493245 78.4373639,34.573948 77.7787699,32.5868719 C77.120176,30.5997958 76.4439411,30.4410649 74.6798502,31.5992128 C62.243009,39.7944319 49.7414844,47.8720725 37.2634811,55.9967446 C28.6899991,61.5640849 20.075355,67.0843939 11.5665563,72.7575549 C9.28499869,74.2743171 7.03872289,75.2619763 4.25145919,74.9386355 C2.90007274,74.8621 1.54543645,74.8621 0.194050004,74.9386355 L0,74.5212319 Z" id="Path" fill="#D18B2F"></path>
                <path d="M57,45 C57,54.4955752 57,63.4428801 57,72.4135157 C57,73.5800483 56.6208405,73.9416734 55.4658624,73.9416734 C41.5011269,73.9416734 27.5402802,73.9611156 13.5833223,74 C13.4724911,74 13.3616598,73.8716814 13,73.6500402 L57,45 Z" id="Path" fill="#2A4F77"></path>
                <polygon id="Path" fill="#31547A" fill-rule="nonzero" points="140.609322 42 140.609322 21.49776 136 21.49776 136 17 150 17 150 21.49776 145.295763 21.49776 145.295763 42"></polygon>
                <path d="M152,42 L152,17.0000274 L159.291638,17.0000274 C160.550257,16.9979119 161.806068,17.1183472 163.041115,17.3596397 C164.066591,17.5879489 165.019102,18.0659623 165.81324,18.7508179 C166.411973,19.2486017 166.934753,19.8304223 167.365157,20.4780011 C167.801545,21.1322555 168.142566,21.8447529 168.378049,22.5942426 C168.616587,23.3456116 168.738432,24.1288256 168.739373,24.9168028 C168.717728,25.9072 168.517082,26.8856283 168.147038,27.8052661 C167.810778,28.7406649 167.300357,29.6046023 166.642509,30.3518297 C165.448524,31.586891 163.901691,32.4265556 162.211847,32.7569175 L169,41.9941052 L163.254355,41.9941052 L156.738676,32.4150177 L156.673519,32.4150177 L156.673519,42 L152,42 Z M156.667596,28.9017032 L159.202787,28.9017032 C160.944251,28.9017032 162.184204,28.5539087 162.922648,27.8583195 C163.676199,27.1585208 164.094191,26.1721784 164.071777,25.1467009 C164.071166,24.5992776 163.951965,24.05842 163.7223,23.5609935 C163.502773,23.0699548 163.152513,22.6479975 162.709408,22.3407652 C162.286121,22.0017204 161.789226,21.7655703 161.258188,21.6510709 C160.591151,21.5376216 159.914938,21.4863111 159.238328,21.4978055 L156.667596,21.4978055 L156.667596,28.9017032 Z" id="Shape" fill="#31547A" fill-rule="nonzero"></path>
                <path d="M169,42 L179.610605,17 L183.287428,17 L194,42 L188.805662,42 L186.046545,35.5569441 L177.049424,35.5569441 L174.224328,42 L169,42 Z M178.752879,31.02971 L184.199136,31.02971 L181.476008,23.4607404 L178.752879,31.02971 Z" id="Shape" fill="#31547A" fill-rule="nonzero"></path>
                <path d="M197,41.9453192 L197,17 L202.244261,17 C203.24485,17 204.227781,17.0470555 205.187169,17.1352847 C206.099652,17.2161678 207.005979,17.3556621 207.90053,17.5529026 C208.767302,17.754128 209.609898,18.047955 210.413773,18.4293121 C211.242825,18.8143287 212.015167,19.3110729 212.709241,19.9056797 C214.090394,21.0737508 215.170365,22.5564732 215.858152,24.2289076 C216.601605,25.9161071 216.990256,27.737962 217,29.5814755 C216.995925,30.4694279 216.899268,31.3545386 216.711595,32.2224678 C216.518046,33.1124914 216.232013,33.9798811 215.858152,34.8105226 C215.496881,35.6407692 215.046951,36.4296011 214.516186,37.1632997 C213.99088,37.8796267 213.384548,38.5329292 212.709241,39.1102228 C211.414466,40.233036 209.864687,41.0225599 208.19482,41.4100624 C206.26077,41.8235835 204.286697,42.0208609 202.309005,41.9982567 L197,41.9453192 Z M201.632137,37.4632788 L202.220718,37.4632788 C203.215421,37.4632788 204.104179,37.4279872 204.886992,37.3632858 C205.688635,37.2962882 206.479184,37.1323571 207.241318,36.8750846 C208.015017,36.6238497 208.74261,36.2483728 209.395527,35.7633974 C210.34281,35.051217 211.104028,34.1210032 211.614479,33.0518218 C212.137043,31.9699103 212.404821,30.7828039 212.397293,29.5814755 C212.398385,28.7243607 212.271422,27.8718855 212.0206,27.0522402 C211.771552,26.2311398 211.389824,25.456263 210.890524,24.7582825 C210.391554,24.0729313 209.780705,23.4764034 209.083579,22.9936997 C208.165376,22.3575168 207.11501,21.9372445 206.011183,21.7643736 C204.677457,21.5793512 203.331698,21.494805 201.985285,21.5114501 L201.65568,21.5114501 L201.632137,37.4632788 Z" id="Shape" fill="#31547A" fill-rule="nonzero"></path>
                <polygon id="Path" fill="#31547A" fill-rule="nonzero" points="220 42 220 17 233 17 233 21.49776 224.494954 21.49776 224.494954 27.2452252 232.65204 27.2452252 232.65204 31.7429851 224.494954 31.7429851 224.494954 37.5081349 233 37.5081349 233 42"></polygon>
                <path d="M148.984994,49.0001019 C153.636166,48.9816835 157.938268,51.461932 160.248776,55.494003 C161.410434,57.4863987 162.015097,59.7538376 161.999592,62.0594239 C162.018038,64.3510999 161.410666,66.6044424 160.242801,68.5770963 C159.101731,70.5344878 157.468215,72.1599406 155.504244,73.2922622 C150.399561,76.1944965 143.983021,75.3347374 139.824581,71.1913275 C138.620019,69.996233 137.661794,68.5767819 137.004154,67.0133324 C136.33686,65.4365816 135.995401,63.7414137 136.000135,62.0295811 C135.984377,58.5794756 137.345386,55.26523 139.782218,52.820017 C142.219051,50.3748041 145.530854,49.0001019 148.984994,49.0001019 L148.984994,49.0001019 Z M148.984994,53.4766282 C147.512727,53.4685368 146.066276,53.8627543 144.802157,54.616624 C141.165902,56.7715909 139.674738,61.2730026 141.3065,65.169046 C141.737578,66.2009573 142.362285,67.1409852 143.146949,67.9384599 C143.915107,68.7290958 144.827907,69.3652899 145.835915,69.8125891 C146.835196,70.2615581 147.919161,70.4915323 149.014871,70.4870369 C150.490876,70.4988816 151.940419,70.0955475 153.197708,69.3231669 C154.469595,68.5481708 155.524204,67.4639816 156.26313,66.1717648 C158.600745,62.1523764 157.26923,57.0027153 153.275389,54.616624 C151.979529,53.8447689 150.49353,53.449926 148.984994,53.4766282 L148.984994,53.4766282 Z" id="Shape" fill="#31547A" fill-rule="nonzero"></path>
                <polygon id="Path" fill="#31547A" fill-rule="nonzero" points="166 74 166 49 179 49 179 53.4920939 170.743409 53.4920939 170.743409 59.2419741 178.65113 59.2419741 178.65113 63.7400575 170.743409 63.7400575 170.743409 74"></polygon>
                <polygon id="Path" fill="#31547A" fill-rule="nonzero" points="182 74 182 49 195 49 195 53.4920939 186.743409 53.4920939 186.743409 59.2419741 194.626648 59.2419741 194.626648 63.7400575 186.743409 63.7400575 186.743409 74"></polygon>
            </g>
        </g>
    </g>
</svg>