<?xml version="1.0" encoding="UTF-8"?>
<svg width="154px" height="34px" viewBox="0 0 154 34" version="1.1" xmlns="http://www.w3.org/2000/svg" xmlns:xlink="http://www.w3.org/1999/xlink">
    <!-- Generator: sketchtool 56.3 (101010) - https://sketch.com -->
    <title>57F00281-74CE-4FCD-97E9-2937FE8B5DF5</title>
    <desc>Created with sketchtool.</desc>
    <g id="Interface" stroke="none" stroke-width="1" fill="none" fill-rule="evenodd">
        <g id="03.1-blog" transform="translate(-1186.000000, -3666.000000)" fill="#FFFFFF">
            <g id="Group" transform="translate(0.000000, 3644.000000)">
                <g id="foot-*" transform="translate(100.000000, 21.000000)">
                    <g id="Group-8">
                        <g id="Group-4">
                            <g id="mangue_simbol" transform="translate(1085.000000, 0.000000)">
                                <path d="M146.789862,28.692375 C146.783456,28.688625 146.778331,28.684875 146.771925,28.682375 C146.710425,28.648625 146.638675,28.629875 146.563081,28.629875 C146.401644,28.629875 146.260706,28.716125 146.186394,28.843625 C146.179988,28.854875 146.174862,28.864875 146.169737,28.876125 C145.775113,29.616125 145.281831,30.291125 144.707831,30.888625 C144.702706,30.893625 144.697581,30.899875 144.692456,30.904875 C144.648894,30.953625 144.623269,31.016125 144.623269,31.086125 C144.623269,31.166125 144.659144,31.238625 144.714237,31.288625 C144.721925,31.294875 144.729613,31.301125 144.7373,31.307375 C144.894894,31.436125 145.039675,31.588625 145.161394,31.762375 L145.504769,32.247375 C146.051862,33.018625 146.372175,33.876125 146.478519,34.743625 C146.51055,35.003625 146.885956,35.036125 146.9718,34.787375 L147.343363,33.704875 L147.987831,31.823625 C148.313269,30.871125 148.055738,29.852375 147.384363,29.157375 C147.211394,28.978625 147.014081,28.821125 146.789862,28.692375" id="Fill-1"></path>
                                <path d="M153.253769,16.410875 C152.490144,17.305875 151.495894,18.040875 150.310738,18.519625 L149.568894,18.819625 C149.253706,18.947125 148.930831,19.019625 148.609238,19.044625 C148.327363,19.065875 148.10955,19.298375 148.087769,19.573375 L147.869956,22.218375 C147.82255,22.805875 148.262019,23.325875 148.862925,23.389625 C148.984644,23.403375 149.106363,23.409625 149.2268,23.4109272 C149.461269,23.412125 149.691894,23.390875 149.916113,23.350875 C151.132019,23.133375 152.16855,22.318375 152.633644,21.172125 C152.688738,21.033375 152.739988,20.893375 152.778425,20.747125 L153.504894,17.974625 L153.838019,16.708375 C153.926425,16.370875 153.483113,16.142125 153.253769,16.410875" id="Fill-4"></path>
                                <path d="M148.808087,24.34175 C148.703025,24.303 148.596681,24.268 148.486494,24.2405 C148.313525,24.19675 148.132869,24.2005 147.9804,24.2505 C147.958619,24.258 147.9394,24.26425 147.922744,24.2705 C147.895837,24.27925 147.871494,24.2905 147.84715,24.303 C147.822806,24.3155 147.80615,24.3255 147.794619,24.33675 C147.725431,24.388 147.6729,24.45925 147.645994,24.5405 L147.637025,24.56925 L146.845213,27.23425 C146.828556,27.29175 146.813181,27.3255 146.806775,27.363 C146.806775,27.36425 146.805494,27.3655 146.805494,27.368 C146.804212,27.37425 146.802931,27.3805 146.802931,27.38675 C146.80165,27.3905 146.80165,27.39675 146.80165,27.403 C146.800369,27.4055 146.800369,27.408 146.800369,27.4105 L146.800369,27.4205 L146.800369,27.43175 L146.800369,27.43675 C146.806775,27.53425 146.86315,27.618 146.947712,27.66175 C146.956681,27.6655 146.964369,27.6705 146.972056,27.67425 C147.206525,27.78675 147.428181,27.93425 147.629337,28.118 L148.085463,28.538 L148.131587,28.5805 C148.93365,29.3155 149.502525,30.2005 149.836931,31.1455 C149.936869,31.42925 150.364806,31.37925 150.398119,31.0805 L150.587744,29.4255 L150.755588,27.96675 L150.806838,27.52425 C150.966994,26.12925 150.127775,24.82675 148.808087,24.34175" id="Fill-6"></path>
                                <path d="M123.981434,30.888375 C123.408716,30.290875 122.914153,29.615875 122.520809,28.877125 C122.515684,28.864625 122.510559,28.854625 122.504153,28.843375 C122.429841,28.715875 122.288903,28.629625 122.127466,28.629625 C122.050591,28.629625 121.980122,28.648375 121.918622,28.682125 C121.912216,28.684625 121.907091,28.688375 121.900684,28.692125 C121.676466,28.820875 121.477872,28.979625 121.304903,29.157125 C120.633528,29.853375 120.377278,30.870875 120.701434,31.823375 L121.347184,33.703375 L121.718747,34.787125 C121.804591,35.035875 122.179997,35.003375 122.210747,34.743375 C122.318372,33.877125 122.638684,33.018375 123.185778,32.247125 L123.527872,31.762125 C123.650872,31.589625 123.794372,31.435875 123.953247,31.307125 L123.975028,31.288375 C124.031403,31.238375 124.065997,31.165875 124.065997,31.085875 C124.065997,31.017125 124.040372,30.953375 123.998091,30.904625 C123.992966,30.899625 123.987841,30.893375 123.981434,30.888375" id="Fill-8"></path>
                                <path d="M119.249266,23.084375 C119.433766,23.096875 119.619547,23.094375 119.809172,23.073125 C120.328078,23.018125 120.707328,22.570625 120.665047,22.061875 L120.477984,19.776875 C120.457484,19.539375 120.270422,19.339375 120.025703,19.320625 C119.750234,19.299375 119.470922,19.236875 119.199297,19.126875 L118.557391,18.866875 C117.533672,18.454375 116.675234,17.819375 116.016672,17.046875 C115.818078,16.813125 115.433703,17.011875 115.510578,17.303125 L115.725828,18.123125 L116.426672,20.790625 C116.471516,20.960625 116.531734,21.123125 116.602203,21.278125 C117.014766,22.181875 117.850141,22.826875 118.827734,23.025625 C118.964828,23.054375 119.107047,23.074375 119.249266,23.084375" id="Fill-11"></path>
                                <path d="M121.061081,28.118625 C121.262237,27.934875 121.483894,27.786125 121.718362,27.674875 C121.72605,27.671125 121.733738,27.666125 121.742706,27.662375 C121.825987,27.618625 121.884925,27.533625 121.888769,27.436125 C121.89005,27.433625 121.89005,27.432375 121.89005,27.431125 L121.89005,27.419875 C121.89005,27.416125 121.89005,27.413625 121.888769,27.411125 L121.888769,27.403625 C121.888769,27.397375 121.888769,27.391125 121.888769,27.386125 C121.887488,27.379875 121.887488,27.373625 121.886206,27.367375 C121.884925,27.364875 121.884925,27.363625 121.884925,27.363625 C121.877237,27.324875 121.861863,27.292375 121.843925,27.234875 L121.052113,24.568625 L121.044425,24.541125 C121.017519,24.458625 120.964988,24.388625 120.8958,24.337375 C120.882988,24.326125 120.867613,24.314875 120.843269,24.302375 C120.820206,24.289875 120.794581,24.279875 120.767675,24.271125 C120.751019,24.263625 120.730519,24.257375 120.710019,24.249875 C120.55755,24.199875 120.376894,24.196125 120.202644,24.239875 C120.092456,24.268625 119.984831,24.303625 119.88105,24.342375 C118.562644,24.827375 117.724706,26.129875 117.884863,27.523625 L117.934831,27.966125 L118.101394,29.424875 L118.2923,31.079875 C118.325613,31.378625 118.75355,31.428625 118.853488,31.146125 C119.187894,30.201125 119.756769,29.316125 120.558831,28.579875 L120.604956,28.538625 L121.061081,28.118625 Z" id="Fill-13"></path>
                                <path d="M144.5077,10.997 C144.853637,11.80825 145.805606,12.19325 146.637137,11.857 C146.869044,11.76325 147.065075,11.622 147.222669,11.45075 C147.630106,11.01075 147.7672,10.3645 147.518637,9.7795 L145.209825,4.3445 C145.084262,4.04825 144.8767,3.8095 144.625575,3.642 C144.186106,3.3495 143.609544,3.27075 143.081669,3.4845 C142.250137,3.82075 141.855512,4.75075 142.198887,5.56075 L144.5077,10.997 Z" id="Fill-15"></path>
                                <path d="M153.875559,8.6325 L151.447591,2.91625 C150.905622,1.63875 149.474466,0.98625 148.144528,1.35 C148.038184,1.37875 147.934403,1.4125 147.830622,1.455 C147.497497,1.58875 147.207934,1.78125 146.963216,2.01125 C146.172684,2.76 145.885684,3.93 146.331559,4.98375 L148.268809,9.5425 C148.628841,10.3925 148.435372,11.33 147.852403,11.97875 C147.617934,12.24 147.323247,12.455 146.972184,12.59625 C145.369341,13.24375 144.608278,15.03625 145.271966,16.60125 C145.387278,16.87125 145.539747,17.11375 145.719122,17.33 C145.845966,17.4825 145.986903,17.62 146.139372,17.74375 C146.973466,18.415 148.150934,18.6275 149.219497,18.195 L149.939559,17.905 C151.907559,17.10875 153.328466,15.5675 153.998559,13.755 C154.591778,12.14875 154.596903,10.3325 153.875559,8.6325" id="Fill-17"></path>
                                <path d="M118.878984,18.337125 L119.499109,18.587125 C120.611234,19.037125 121.856609,18.678375 122.558734,17.793375 C122.680453,17.640875 122.784234,17.474625 122.868797,17.292125 C122.882891,17.264625 122.898266,17.238375 122.909797,17.210875 C123.483797,15.859625 122.825234,14.309625 121.441484,13.750875 C120.820078,13.499625 120.393422,12.988375 120.234547,12.398375 C120.123078,11.987125 120.141016,11.538375 120.321672,11.113375 L121.993703,7.175875 C122.498516,5.985875 121.919391,4.620875 120.699641,4.128375 C120.296047,3.964625 119.874516,3.919625 119.472203,3.972125 C119.441453,3.975875 119.411984,3.980875 119.383797,3.985875 C118.599672,4.115875 117.901391,4.620875 117.574672,5.390875 L115.479828,10.327125 C114.998078,11.462125 114.893016,12.655875 115.104422,13.779625 C115.478547,15.754625 116.835391,17.510875 118.878984,18.337125" id="Fill-20"></path>
                                <path d="M138.251612,15.7175 C138.307987,15.7275 138.365644,15.73375 138.425862,15.73375 C138.984487,15.73375 139.43805,15.29125 139.43805,14.74625 L139.43805,11.22875 C139.43805,10.68375 138.984487,10.24125 138.425862,10.24125 C137.865956,10.24125 137.413675,10.68375 137.413675,11.22875 L137.413675,13.07375 L137.413675,14.74625 C137.413675,15.2325 137.776269,15.63875 138.251612,15.7175" id="Fill-22"></path>
                                <path d="M146.777434,23.609375 C147.352716,21.670625 146.800497,19.734375 145.564091,18.375625 C145.319372,18.106875 145.050309,17.859375 144.756903,17.641875 C143.811341,16.935625 142.623622,16.508125 141.307778,16.508125 L138.421122,16.508125 L137.651091,16.508125 L131.038559,16.508125 L130.267247,16.508125 L127.388278,16.508125 C126.072434,16.508125 124.883434,16.935625 123.937872,17.643125 C123.635497,17.866875 123.361309,18.120625 123.112747,18.396875 C121.890434,19.755625 121.345903,21.681875 121.919903,23.609375 L122.932091,27.018125 C123.977591,30.535625 127.279372,32.956875 131.034716,32.956875 L133.662559,32.956875 L135.025809,32.956875 L137.662622,32.956875 C141.416684,32.956875 144.719747,30.535625 145.765247,27.018125 L146.777434,23.609375 Z" id="Fill-24"></path>
                                <path d="M130.275062,15.733375 C130.330156,15.733375 130.383969,15.727125 130.4365,15.719625 C130.91825,15.644625 131.288531,15.238375 131.288531,14.745875 L131.288531,13.043375 L131.288531,12.504625 C131.288531,11.958375 130.834969,11.517125 130.275062,11.517125 C129.716437,11.517125 129.262875,11.958375 129.262875,12.504625 L129.262875,14.745875 C129.262875,15.290875 129.716437,15.733375 130.275062,15.733375" id="Fill-26"></path>
                                <path d="M120.8671,11.954 C120.9081,12.4515 121.22585,12.909 121.730663,13.11275 C122.448163,13.40275 123.272006,13.0715 123.569256,12.37025 L125.562881,7.674 C125.860131,6.97525 125.5206,6.1715 124.801819,5.8815 C124.604506,5.80025 124.398225,5.77025 124.19835,5.779 C123.670475,5.804 123.178475,6.1165 122.963225,6.62275 L120.9696,11.319 C120.881194,11.5265 120.849163,11.744 120.8671,11.954" id="Fill-28"></path>
                                <text id="Desenvolvido-pela-Ma" font-family="IBMPlexSans-Light, IBM Plex Sans" font-size="14" font-weight="300" letter-spacing="-0.600000024">
                                    <tspan x="0" y="14">Desenvolvido pela </tspan>
                                    <tspan x="0" y="32">Mangue Tecnologia</tspan>
                                </text>
                            </g>
                        </g>
                    </g>
                </g>
            </g>
        </g>
    </g>
</svg>