<?xml version="1.0" encoding="UTF-8"?>
<svg width="35px" height="40px" viewBox="0 0 35 40" version="1.1" xmlns="http://www.w3.org/2000/svg" xmlns:xlink="http://www.w3.org/1999/xlink">
    <!-- Generator: sketchtool 56.3 (101010) - https://sketch.com -->
    <title>37E57F0A-C7B2-4DA3-908F-7FF34519638E</title>
    <desc>Created with sketchtool.</desc>
    <g id="Style-guide" stroke="none" stroke-width="1" fill="none" fill-rule="evenodd">
        <g id="00-Styleguide" transform="translate(-1206.000000, -2818.000000)" fill="#D18B2F" fill-rule="nonzero">
            <path d="M1231.74028,2846.93164 C1232.73622,2847.60711 1233.22357,2848.74336 1233.04388,2849.97109 C1232.84661,2851.31914 1231.87435,2852.45641 1230.56724,2852.86836 C1230.40544,2852.91937 1230.23677,2852.96102 1230.06396,2852.99453 L1230.06396,2853.92461 C1230.06396,2854.38477 1229.69075,2854.75797 1229.2306,2854.75797 C1228.77028,2854.75797 1228.39724,2854.38477 1228.39724,2853.92461 L1228.39724,2853.05469 C1227.15747,2852.91422 1225.98169,2852.36391 1225.47489,2851.38703 C1225.26302,2850.97844 1225.42239,2850.47547 1225.83091,2850.26352 C1226.23942,2850.05164 1226.74232,2850.21094 1226.95427,2850.61945 C1227.13708,2850.97141 1227.70771,2851.26352 1228.39732,2851.37844 L1228.39732,2847.45469 C1228.37817,2847.44914 1228.35841,2847.44367 1228.33942,2847.43813 C1226.65357,2846.94266 1225.55692,2845.8218 1225.40583,2844.43969 C1225.27122,2843.20813 1225.94232,2842.02734 1227.15732,2841.35781 C1227.53966,2841.14719 1227.96021,2841.01906 1228.39739,2840.95742 L1228.39739,2840.40883 C1228.39739,2839.94867 1228.77052,2839.57547 1229.23075,2839.57547 C1229.69091,2839.57547 1230.06411,2839.94867 1230.06411,2840.40883 L1230.06411,2841.00789 C1230.87802,2841.15562 1231.65888,2841.46227 1232.27552,2841.83555 C1232.66927,2842.07391 1232.79521,2842.58625 1232.55692,2842.98 C1232.31864,2843.37383 1231.8063,2843.49984 1231.41255,2843.26141 C1231.02442,2843.02672 1230.55052,2842.83336 1230.06403,2842.71344 L1230.06403,2843.89203 C1230.06403,2844.35219 1229.69083,2844.72539 1229.23067,2844.72539 C1228.77036,2844.72539 1228.39732,2844.35219 1228.39732,2843.89203 L1228.39732,2842.6525 C1228.24013,2842.69086 1228.09333,2842.74508 1227.96146,2842.81766 C1227.33763,2843.16141 1227.00146,2843.70008 1227.06255,2844.25852 C1227.1381,2844.94898 1227.79107,2845.53977 1228.80935,2845.83914 C1228.98669,2845.89125 1229.16771,2845.94117 1229.34935,2845.99133 C1230.18169,2846.22102 1231.04255,2846.45859 1231.74028,2846.93164 Z M1231.39474,2849.72984 C1231.4356,2849.45117 1231.45966,2848.75523 1230.80497,2848.31117 C1230.59903,2848.17164 1230.34427,2848.05477 1230.06403,2847.95125 L1230.06403,2851.27953 C1230.06482,2851.27914 1230.0656,2851.27898 1230.0663,2851.27875 C1230.76802,2851.05766 1231.28942,2850.44969 1231.39474,2849.72984 Z M1229.23067,2836.33344 C1235.20419,2836.33344 1240.06388,2841.19328 1240.06388,2847.16687 C1240.06388,2853.14031 1235.20411,2858 1229.2306,2858 C1224.6388,2858 1220.7056,2855.12836 1219.13122,2851.08695 C1218.61317,2851.11195 1218.08841,2851.12516 1217.56364,2851.12516 C1214.8106,2851.12516 1212.21107,2850.78656 1210.24396,2850.17188 C1207.33982,2849.26438 1206.73021,2848.0368 1206.73021,2847.16687 L1206.73021,2821.95836 C1206.73021,2821.08836 1207.33982,2819.86078 1210.24396,2818.9532 C1212.21107,2818.33859 1214.81052,2818 1217.56364,2818 C1220.31677,2818 1222.9163,2818.33859 1224.88333,2818.9532 C1227.78732,2819.86078 1228.397,2821.08836 1228.397,2821.95836 L1228.397,2836.36516 C1228.67208,2836.34422 1228.95028,2836.33344 1229.23067,2836.33344 Z M1210.74107,2820.54398 C1208.82747,2821.14203 1208.39685,2821.78156 1208.39685,2821.95836 C1208.39685,2822.13531 1208.82747,2822.77477 1210.74107,2823.37273 C1212.55153,2823.93852 1214.9745,2824.25008 1217.56364,2824.25008 C1220.15278,2824.25008 1222.57567,2823.93852 1224.38622,2823.37281 C1226.29966,2822.77477 1226.73036,2822.13531 1226.73036,2821.95836 C1226.73036,2821.78148 1226.29966,2821.14195 1224.38622,2820.54398 C1222.57567,2819.9782 1220.15263,2819.66664 1217.56364,2819.66664 C1214.9745,2819.66664 1212.55161,2819.9782 1210.74107,2820.54398 Z M1208.39669,2824.19187 L1208.39669,2830.36141 C1208.39669,2830.53828 1208.82739,2831.17773 1210.74099,2831.7757 C1212.55146,2832.34148 1214.97458,2832.65305 1217.56357,2832.65305 C1219.09435,2832.65305 1220.61802,2832.53922 1221.96997,2832.32391 C1222.42333,2832.25164 1222.85161,2832.56117 1222.92403,2833.01578 C1222.99646,2833.47023 1222.68669,2833.89742 1222.23208,2833.96977 C1220.77442,2834.20203 1219.20372,2834.31977 1217.56357,2834.31977 C1214.81052,2834.31977 1212.21099,2833.98125 1210.24388,2833.36656 C1209.47872,2833.1275 1208.87419,2832.86602 1208.39669,2832.59492 L1208.39669,2834.56266 C1208.39669,2834.73961 1208.82747,2835.37914 1210.74107,2835.97711 C1212.55146,2836.54289 1214.9745,2836.85437 1217.56364,2836.85437 C1220.15278,2836.85437 1222.57567,2836.54289 1224.38622,2835.97711 C1226.29966,2835.37906 1226.73036,2834.73961 1226.73036,2834.56266 L1226.73036,2828.39352 C1226.25294,2828.66461 1225.64849,2828.92602 1224.88333,2829.16508 C1222.91638,2829.77969 1220.31685,2830.11828 1217.56372,2830.11828 C1216.29599,2830.11828 1215.05614,2830.04664 1213.87849,2829.90547 C1213.42153,2829.85078 1213.09552,2829.43586 1213.15028,2828.97891 C1213.20497,2828.52195 1213.62013,2828.19547 1214.07685,2828.2507 C1215.18896,2828.38398 1216.36208,2828.45164 1217.56364,2828.45164 C1220.15278,2828.45164 1222.5756,2828.14008 1224.38622,2827.57438 C1226.29966,2826.97633 1226.73036,2826.3368 1226.73036,2826.16 L1226.73036,2824.19187 C1226.25294,2824.46313 1225.64849,2824.72453 1224.88333,2824.96359 C1222.9163,2825.57812 1220.31669,2825.91672 1217.56364,2825.91672 C1214.8106,2825.91672 1212.21107,2825.5782 1210.24396,2824.96352 C1209.4788,2824.72445 1208.87427,2824.46305 1208.39669,2824.19187 Z M1217.56364,2849.45852 C1217.92216,2849.45852 1218.28067,2849.45227 1218.63638,2849.43984 C1218.63192,2849.4193 1218.62817,2849.39859 1218.62403,2849.3782 C1218.61708,2849.34453 1218.61044,2849.31063 1218.6038,2849.2768 C1218.59302,2849.22195 1218.58216,2849.16719 1218.57216,2849.11227 C1218.56505,2849.0725 1218.55833,2849.03258 1218.55161,2848.99273 C1218.54302,2848.9425 1218.53442,2848.89234 1218.52653,2848.84203 C1218.5195,2848.79711 1218.51325,2848.75187 1218.50685,2848.7068 C1218.50028,2848.66094 1218.49349,2848.61492 1218.48755,2848.56883 C1218.48114,2848.51906 1218.4756,2848.46906 1218.46982,2848.41914 C1218.46489,2848.37703 1218.45966,2848.33477 1218.45521,2848.29242 C1218.44958,2848.23875 1218.44513,2848.18477 1218.44028,2848.13086 C1218.43685,2848.0918 1218.43286,2848.05266 1218.42982,2848.01344 C1218.42544,2847.95563 1218.422,2847.89734 1218.41841,2847.8393 C1218.4163,2847.80391 1218.41349,2847.76836 1218.41169,2847.73281 C1218.40833,2847.66836 1218.40622,2847.60344 1218.40403,2847.53859 C1218.40294,2847.50914 1218.40146,2847.47969 1218.40067,2847.45039 C1218.39825,2847.35609 1218.39692,2847.26172 1218.39692,2847.16687 C1218.39692,2847.08203 1218.39802,2846.9975 1218.39997,2846.91281 C1218.12169,2846.91992 1217.84239,2846.92383 1217.56357,2846.92383 C1214.81052,2846.92383 1212.21091,2846.58523 1210.24388,2845.97055 C1209.47872,2845.73148 1208.87419,2845.47 1208.39677,2845.19891 L1208.39677,2847.16687 C1208.39677,2847.34375 1208.82747,2847.9832 1210.74107,2848.58117 C1212.55153,2849.14695 1214.97466,2849.45852 1217.56364,2849.45852 Z M1219.35614,2842.71102 C1219.36232,2842.6975 1219.36864,2842.68406 1219.37482,2842.67047 C1218.77935,2842.70352 1218.1745,2842.72234 1217.56364,2842.72234 C1216.29591,2842.72234 1215.05607,2842.6507 1213.87841,2842.50953 C1213.42146,2842.45484 1213.09544,2842.03992 1213.15021,2841.58297 C1213.20489,2841.12594 1213.62005,2840.79992 1214.07677,2840.85477 C1215.18888,2840.98805 1216.362,2841.0557 1217.56357,2841.0557 C1218.52271,2841.0557 1219.46841,2841.01219 1220.37466,2840.92688 C1220.56685,2840.6543 1220.77169,2840.38977 1220.98966,2840.13453 C1221.74427,2839.25133 1222.63091,2838.50156 1223.60911,2837.90703 C1221.85271,2838.30539 1219.75747,2838.52094 1217.56357,2838.52094 C1214.81044,2838.52094 1212.21091,2838.18234 1210.24388,2837.56773 C1209.47872,2837.32867 1208.87419,2837.06719 1208.39669,2836.79609 L1208.39669,2842.96547 C1208.39669,2843.14234 1208.82739,2843.78188 1210.74099,2844.37984 C1212.55146,2844.94562 1214.97442,2845.25719 1217.56357,2845.25719 C1217.89888,2845.25719 1218.23482,2845.25117 1218.56864,2845.24039 C1218.70521,2844.48281 1218.9213,2843.75258 1219.20708,2843.05805 C1219.21974,2843.02711 1219.23208,2842.99617 1219.24505,2842.96539 C1219.25286,2842.94664 1219.26114,2842.92812 1219.26911,2842.90945 C1219.29724,2842.84375 1219.32575,2842.77844 1219.35505,2842.71336 C1219.35536,2842.7125 1219.35583,2842.71187 1219.35614,2842.71102 Z M1229.23067,2856.33336 C1234.28505,2856.33336 1238.39739,2852.22125 1238.39739,2847.16672 C1238.39739,2842.11219 1234.28521,2837.99992 1229.23083,2837.99992 C1228.70224,2837.99992 1228.18411,2838.04555 1227.67989,2838.1318 C1227.56325,2838.15164 1227.44747,2838.17406 1227.33255,2838.19812 C1227.29872,2838.20531 1227.26497,2838.21273 1227.23146,2838.22023 C1227.14357,2838.23969 1227.0563,2838.2607 1226.96958,2838.2825 C1226.89357,2838.30195 1226.81778,2838.32219 1226.74263,2838.34336 C1226.72935,2838.34711 1226.71622,2838.35102 1226.70286,2838.35477 C1223.45333,2839.28828 1220.93778,2841.97453 1220.25075,2845.32008 C1220.25044,2845.32148 1220.25005,2845.32289 1220.24982,2845.3243 C1220.22575,2845.44094 1220.20482,2845.55859 1220.18536,2845.67688 C1220.17755,2845.72547 1220.16958,2845.77406 1220.16247,2845.82289 C1220.15466,2845.87609 1220.14692,2845.92922 1220.13997,2845.98273 C1220.12739,2846.08156 1220.11614,2846.18094 1220.10661,2846.28078 C1220.10317,2846.31602 1220.10013,2846.35141 1220.09716,2846.3868 C1220.08778,2846.49922 1220.07982,2846.61219 1220.0745,2846.7257 C1220.07357,2846.74625 1220.07302,2846.76703 1220.07216,2846.78758 C1220.06708,2846.91344 1220.06364,2847.03977 1220.06364,2847.16687 C1220.06364,2847.27289 1220.06607,2847.37859 1220.06974,2847.48422 C1220.0706,2847.51039 1220.07153,2847.53656 1220.07271,2847.56273 C1220.07716,2847.66711 1220.08286,2847.77125 1220.09083,2847.87508 C1220.09153,2847.88352 1220.09232,2847.8918 1220.09302,2847.90023 C1220.1006,2847.99617 1220.11021,2848.09188 1220.12075,2848.1875 C1220.12396,2848.21617 1220.12716,2848.24484 1220.1306,2848.27352 C1220.14247,2848.37211 1220.1556,2848.47055 1220.17075,2848.56859 C1220.17442,2848.59273 1220.1788,2848.61664 1220.18271,2848.6407 C1220.19513,2848.71766 1220.20864,2848.79453 1220.2231,2848.87117 C1220.22997,2848.90734 1220.23669,2848.94352 1220.24396,2848.97953 C1220.26177,2849.06773 1220.28067,2849.15555 1220.30091,2849.24305 C1220.31091,2849.28625 1220.32185,2849.32891 1220.33239,2849.37172 C1220.34528,2849.42359 1220.35864,2849.47547 1220.37239,2849.52719 C1220.39302,2849.60422 1220.4145,2849.68086 1220.437,2849.75711 C1220.45044,2849.80258 1220.46364,2849.8482 1220.47778,2849.89352 C1221.64138,2853.62055 1225.12513,2856.33336 1229.23067,2856.33336 Z M1210.92411,2829.35969 C1210.47903,2829.24234 1210.21341,2828.78641 1210.33091,2828.34133 C1210.44817,2827.89633 1210.90388,2827.63062 1211.34927,2827.74813 C1211.4656,2827.77875 1211.58458,2827.80852 1211.70583,2827.83734 C1212.15357,2827.94383 1212.43013,2828.3932 1212.32364,2828.84086 C1212.23255,2829.22383 1211.89067,2829.48156 1211.51364,2829.48156 C1211.44982,2829.48156 1211.38489,2829.4743 1211.32005,2829.45883 C1211.18544,2829.42688 1211.05325,2829.39375 1210.92411,2829.35969 Z M1224.46341,2833.4568 C1224.10427,2833.4568 1223.77294,2833.22297 1223.66497,2832.86102 C1223.53364,2832.41992 1223.78466,2831.95586 1224.22575,2831.82445 C1224.36997,2831.78164 1224.51513,2831.73539 1224.65739,2831.68711 C1225.09333,2831.53937 1225.56653,2831.77289 1225.71427,2832.20875 C1225.86208,2832.64469 1225.62849,2833.11789 1225.19263,2833.26562 C1225.03075,2833.32047 1224.8656,2833.37305 1224.70169,2833.42188 C1224.62239,2833.44547 1224.54216,2833.4568 1224.46341,2833.4568 Z M1211.70528,2840.44141 C1212.1531,2840.54758 1212.42997,2840.9968 1212.32364,2841.44461 C1212.23271,2841.82773 1211.89083,2842.0857 1211.51357,2842.0857 C1211.44997,2842.0857 1211.38521,2842.07836 1211.32052,2842.06305 C1211.18614,2842.03109 1211.05419,2841.9982 1210.92513,2841.96438 C1210.47997,2841.84758 1210.2138,2841.39195 1210.33052,2840.94688 C1210.44732,2840.50156 1210.90349,2840.23578 1211.3481,2840.35227 C1211.46458,2840.38281 1211.58388,2840.41258 1211.70528,2840.44141 Z" id="Combined-Shape-3"></path>
        </g>
    </g>
</svg>