<?xml version="1.0" encoding="UTF-8"?>
<svg width="41px" height="40px" viewBox="0 0 41 40" version="1.1" xmlns="http://www.w3.org/2000/svg" xmlns:xlink="http://www.w3.org/1999/xlink">
    <!-- Generator: sketchtool 56.3 (101010) - https://sketch.com -->
    <title>0AE44B4B-1B1D-4203-929C-5900A44F66D4</title>
    <desc>Created with sketchtool.</desc>
    <g id="Style-guide" stroke="none" stroke-width="1" fill="none" fill-rule="evenodd">
        <g id="00-Styleguide" transform="translate(-1103.000000, -2818.000000)" fill="#D18B2F" fill-rule="nonzero">
            <path d="M1142.66842,2831.72617 C1144.08412,2833.1418 1144.08412,2835.44539 1142.6685,2836.86117 L1123.19818,2856.33148 L1132.06256,2856.33164 C1132.52272,2856.33164 1132.89584,2856.70469 1132.89584,2857.16492 C1132.89584,2857.62508 1132.52272,2857.9982 1132.06256,2857.9982 L1120.02717,2857.9982 C1120.02608,2857.9982 1120.02506,2857.9982 1120.02397,2857.9982 C1120.02287,2857.9982 1120.02186,2857.9982 1120.02076,2857.9982 L1115.39662,2857.9982 C1114.93647,2857.9982 1114.56334,2857.62492 1114.56334,2857.16477 C1114.56334,2856.70453 1114.93647,2856.33148 1115.39662,2856.33148 L1116.85006,2856.33148 L1106.35318,2845.83461 C1106.35303,2845.83445 1106.35287,2845.8343 1106.35272,2845.83414 C1106.35256,2845.83398 1106.35248,2845.83383 1106.35233,2845.83375 L1104.79045,2844.27187 C1104.10678,2843.58828 1103.73022,2842.67641 1103.73022,2841.70437 C1103.73022,2840.73234 1104.10678,2839.82062 1104.79045,2839.13688 L1124.86717,2819.06008 C1125.55092,2818.37641 1126.46279,2818 1127.43475,2818 C1128.40678,2818 1129.31858,2818.37656 1130.00233,2819.06023 L1142.66842,2831.72617 Z M1141.48998,2835.68273 C1142.25576,2834.9168 1142.25584,2833.67047 1141.48998,2832.90453 L1134.51037,2825.92516 L1115.22928,2845.20633 C1115.06654,2845.36898 1114.85326,2845.45039 1114.64006,2845.45039 C1114.42686,2845.45039 1114.21358,2845.36906 1114.05084,2845.20641 C1113.72545,2844.88086 1113.72545,2844.3532 1114.05084,2844.02789 L1133.33193,2824.74664 L1128.82389,2820.23867 C1128.45498,2819.86977 1127.96162,2819.66664 1127.43475,2819.66664 C1126.90787,2819.66664 1126.41451,2819.86977 1126.04561,2820.23859 L1105.96889,2840.31531 C1105.59998,2840.68422 1105.39686,2841.17758 1105.39686,2841.70445 C1105.39686,2842.23133 1105.59998,2842.72461 1105.96881,2843.09344 L1106.94193,2844.06656 L1126.22279,2824.78555 C1126.54834,2824.46008 1127.07584,2824.46008 1127.40131,2824.78547 C1127.7267,2825.11086 1127.7267,2825.63852 1127.40131,2825.96391 L1108.12045,2845.24492 L1118.63506,2855.75961 C1119.00311,2856.12773 1119.49514,2856.33063 1120.02068,2856.33148 L1120.02701,2856.33148 C1120.55272,2856.3307 1121.0449,2856.12773 1121.41311,2855.75961 L1141.48998,2835.68273 Z M1124.26154,2842.06664 C1124.58693,2842.39203 1124.58693,2842.91961 1124.26147,2843.24516 L1117.70412,2849.80242 C1117.54139,2849.96508 1117.32811,2850.04648 1117.1149,2850.04648 C1116.9017,2850.04648 1116.68842,2849.96516 1116.52568,2849.80242 C1116.20029,2849.47687 1116.20029,2848.9493 1116.52568,2848.62391 L1123.08303,2842.06664 C1123.40865,2841.74133 1123.93615,2841.74125 1124.26154,2842.06664 Z M1121.57201,2848.29141 C1121.89764,2847.96594 1122.42506,2847.96594 1122.75045,2848.29141 C1123.07584,2848.61688 1123.07584,2849.14453 1122.75045,2849.46992 L1120.061,2852.15938 C1119.89826,2852.32203 1119.68514,2852.40344 1119.47178,2852.40344 C1119.25858,2852.40344 1119.04529,2852.32203 1118.88256,2852.15938 C1118.55717,2851.83391 1118.55717,2851.30625 1118.88256,2850.98086 L1121.57201,2848.29141 Z M1124.04693,2845.81672 C1124.37233,2845.49133 1124.90006,2845.49141 1125.22529,2845.8168 C1125.55068,2846.14227 1125.55068,2846.66984 1125.22522,2846.99523 L1124.8717,2847.34867 C1124.70904,2847.51141 1124.49576,2847.59281 1124.28256,2847.59281 C1124.06936,2847.59281 1123.856,2847.51141 1123.69334,2847.34867 C1123.36795,2847.02313 1123.36795,2846.49555 1123.69342,2846.17016 L1124.04693,2845.81672 Z M1135.53279,2830.79547 L1137.88967,2833.15242 C1138.21506,2833.47781 1138.21506,2834.00547 1137.88967,2834.33086 L1134.35428,2837.86617 C1134.19154,2838.02883 1133.97842,2838.11023 1133.76506,2838.11023 C1133.55186,2838.11023 1133.33858,2838.02891 1133.17584,2837.86617 L1130.81881,2835.50938 C1130.66256,2835.35313 1130.57475,2835.14117 1130.57475,2834.92016 C1130.57475,2834.69914 1130.66256,2834.48727 1130.81881,2834.33094 L1134.35436,2830.79547 C1134.51068,2830.63922 1134.72256,2830.55141 1134.94358,2830.55141 C1135.16459,2830.55141 1135.37654,2830.63922 1135.53279,2830.79547 Z M1133.76498,2836.09859 L1136.12193,2833.74172 L1134.9435,2832.5632 L1132.58647,2834.92016 L1133.76498,2836.09859 Z M1128.7567,2824.26367 C1128.54342,2824.26367 1128.33029,2824.18242 1128.16756,2824.01969 C1127.84209,2823.69438 1127.84201,2823.16672 1128.16733,2822.84125 L1128.52084,2822.48758 C1128.84615,2822.16211 1129.37389,2822.16203 1129.69928,2822.48734 C1130.02475,2822.81266 1130.02483,2823.34031 1129.69951,2823.66578 L1129.346,2824.01945 C1129.18334,2824.18227 1128.97006,2824.26367 1128.7567,2824.26367 Z M1112.10639,2845.97234 C1112.43186,2845.64687 1112.95936,2845.64687 1113.28483,2845.97234 C1113.61022,2846.29773 1113.61022,2846.82539 1113.28483,2847.15086 L1112.93131,2847.50437 C1112.76858,2847.66703 1112.55529,2847.74836 1112.34209,2847.74836 C1112.12889,2847.74836 1111.91561,2847.66703 1111.75287,2847.50437 C1111.42748,2847.17883 1111.42748,2846.65117 1111.75287,2846.32586 L1112.10639,2845.97234 Z" id="Combined-Shape-2"></path>
        </g>
    </g>
</svg>