<?xml version="1.0" encoding="UTF-8"?>
<svg width="38px" height="40px" viewBox="0 0 38 40" version="1.1" xmlns="http://www.w3.org/2000/svg" xmlns:xlink="http://www.w3.org/1999/xlink">
    <!-- Generator: sketchtool 56.3 (101010) - https://sketch.com -->
    <title>F7A07F79-EDED-4F48-A762-2822C64A82FC</title>
    <desc>Created with sketchtool.</desc>
    <g id="Style-guide" stroke="none" stroke-width="1" fill="none" fill-rule="evenodd">
        <g id="00-Styleguide" transform="translate(-695.000000, -2818.000000)" fill="#D18B2F" fill-rule="nonzero">
            <path d="M726.70752,2836.0952 L726.70792,2836.0952 C729.808492,2836.10101 732.432725,2838.38635 732.864505,2841.45672 C733.296285,2844.52708 731.404135,2847.44755 728.425424,2848.30828 C725.446714,2849.16902 722.28846,2847.70792 721.016,2844.88048 L710.92,2844.88048 L710.92,2847.49608 C710.92,2849.03672 709.8,2850.32192 708.28,2850.58672 L708.28,2851.36048 L708.63128,2851.36048 C709.3812,2851.36048 709.96,2851.99904 709.96,2852.74896 L709.96,2856.50392 C709.965783,2856.85878 709.827908,2857.20091 709.577693,2857.4526 C709.327478,2857.70429 708.986164,2857.84417 708.63128,2857.8406 L696.36,2857.8406 C696.001887,2857.84537 695.656682,2857.70688 695.401242,2857.45585 C695.145802,2857.20481 695.001333,2856.86206 695,2856.50392 L695,2852.74896 C695,2851.99904 695.61008,2851.36048 696.36,2851.36048 L697.16,2851.36048 L697.16,2839.51912 C697.151941,2838.69753 697.46968,2837.9062 698.04368,2837.31832 C698.05944,2837.30216 698.05968,2837.28704 698.07736,2837.27296 L705.8,2831.11032 L705.8,2820.26024 C705.802596,2819.65681 706.045391,2819.07926 706.474726,2818.65522 C706.90406,2818.23119 707.484585,2817.99558 708.088,2818.00023 L718.328,2818.00023 C718.476538,2817.99602 718.620775,2818.05069 718.72904,2818.15248 L725.62656,2825.03376 C725.734173,2825.13783 725.796481,2825.28009 725.8,2825.42976 L725.8,2836.16328 C726.10048,2836.11883 726.403771,2836.09608 726.70752,2836.0952 Z M718.92,2819.88896 L718.92,2823.70656 C718.92,2824.348 719.41008,2824.88048 720.05152,2824.88048 L723.86912,2824.88048 L718.92,2819.88896 Z M708.6,2852.48048 L696.36,2852.48048 C696.227452,2852.48048 696.12,2852.58793 696.12,2852.72048 L696.12,2856.48048 C696.12,2856.61303 696.227452,2856.72048 696.36,2856.72048 L708.6,2856.72048 C708.732548,2856.72048 708.84,2856.61303 708.84,2856.48048 L708.84,2852.72048 C708.84,2852.58793 708.732548,2852.48048 708.6,2852.48048 Z M709.8,2847.49648 L709.8,2844.88048 L708.088,2844.88048 C706.829786,2844.87132 705.812316,2843.8531 705.80408,2842.59488 L705.75272,2842.62832 L705.72984,2842.99512 C705.734098,2843.28775 705.802018,2843.57594 705.92888,2843.83968 C706.510649,2845.06592 706.432033,2846.50332 705.72,2847.6588 L705.72,2848.7868 C705.72,2849.09608 705.469279,2849.3468 705.16,2849.3468 C704.850721,2849.3468 704.6,2849.09608 704.6,2848.7868 L704.6,2847.49648 C704.602226,2847.38502 704.63732,2847.2767 704.70088,2847.18512 C705.268584,2846.33211 705.352292,2845.2454 704.92192,2844.31552 C704.721444,2843.89851 704.616029,2843.4422 704.61328,2842.97952 C704.61328,2842.96859 704.6136,2842.95779 704.61424,2842.94712 L704.6488,2842.35024 C704.656809,2842.21315 704.714852,2842.08377 704.81192,2841.98664 L707.54896,2839.24944 C708.085288,2838.71195 708.085288,2837.84173 707.54896,2837.30424 L707.44496,2837.20064 L701.63784,2841.79856 C701.395281,2841.9895 701.043993,2841.9484 700.852063,2841.70662 C700.660132,2841.46484 700.699803,2841.11339 700.9408,2840.92048 L705.8,2837.07152 L705.8,2832.54304 L698.81936,2838.12608 C698.46568,2838.50288 698.272281,2839.00239 698.28,2839.51912 L698.28,2851.36048 L707.16,2851.36048 L707.16,2850.07712 C707.174017,2849.76227 707.434522,2849.51487 707.74968,2849.51712 C708.864,2849.51712 709.8,2848.61064 709.8,2847.49648 Z M720.63912,2843.76048 C720.535768,2843.29211 720.484284,2842.81379 720.4856,2842.33416 C720.493516,2839.67859 722.173963,2837.31619 724.68,2836.4376 L724.68,2826.00048 L720.05152,2826.00048 C718.79248,2826.00048 717.8,2824.96552 717.8,2823.70656 L717.8,2819.12031 L708.088,2819.12031 C707.781542,2819.11526 707.485713,2819.23276 707.266348,2819.44682 C707.046982,2819.66088 706.922283,2819.95375 706.92,2820.26024 L706.92,2836.18448 L707.13808,2836.01384 C707.361701,2835.83732 707.681976,2835.85585 707.88376,2836.05696 L708.33976,2836.51296 C709.312403,2837.48851 709.311867,2839.06727 708.33856,2840.04216 L706.92,2841.45816 L706.92,2842.5632 C706.92,2843.20464 707.44624,2843.76048 708.088,2843.76048 L720.63912,2843.76048 Z M726.69808,2847.41896 C729.514446,2847.41579 731.796782,2845.13348 731.8,2842.31712 C731.8,2840.25358 730.55701,2838.39321 728.650556,2837.6035 C726.744101,2836.8138 724.549662,2837.25028 723.090506,2838.70941 C721.631351,2840.16854 721.194837,2842.36297 721.984513,2844.26944 C722.774188,2846.17591 724.634539,2847.41896 726.69808,2847.41896 Z M722.444,2831.28288 C722.443458,2831.30744 722.441347,2831.33195 722.43768,2831.35624 L722.04184,2834.32744 C722.01864,2834.78789 721.740041,2835.19675 721.32,2835.3868 L721.32,2836.11152 C721.321069,2836.34103 721.228779,2836.56112 721.064329,2836.72122 C720.899879,2836.88133 720.677402,2836.96769 720.448,2836.96048 L719.46544,2836.96048 C719.23672,2836.96742 719.015067,2836.88076 718.851715,2836.72052 C718.688364,2836.56028 718.597454,2836.34033 718.6,2836.11152 L718.6,2835.52048 L711.4,2835.52048 L711.4,2836.11152 C711.4,2836.5988 710.98256,2836.96048 710.49528,2836.96048 L709.5124,2836.96048 C709.02512,2836.96048 708.6,2836.5988 708.6,2836.11152 L708.6,2835.3948 C708.177867,2835.20285 707.89997,2834.78936 707.88168,2834.326 L707.51976,2831.354 C707.516787,2831.33092 707.51528,2831.30767 707.51528,2831.2844 C707.51528,2830.38592 708.08352,2829.65912 708.86096,2829.48896 L710.0284,2827.4232 C710.53024,2826.39856 711.27632,2825.84048 712.1308,2825.84048 L717.88448,2825.84048 C718.944,2825.84048 719.55088,2826.67888 719.96096,2827.4144 L721.092,2829.4944 C721.86408,2829.67072 722.444,2830.40552 722.444,2831.28288 Z M711.012,2827.94632 L710.16528,2829.44048 L715.79064,2829.44048 C716.021363,2828.6205 716.769257,2828.054 717.62108,2828.054 C718.472903,2828.054 719.220797,2828.6205 719.45152,2829.44048 L719.7968,2829.44048 L718.98016,2827.948 C718.58992,2827.24848 718.26128,2826.96048 717.88416,2826.96048 L712.13048,2826.96048 C711.582,2826.96048 711.204,2827.56112 711.028,2827.92472 C711.02312,2827.9352 711.01776,2827.93616 711.012,2827.94632 Z M718.20752,2829.44048 C718.059643,2829.27121 717.845842,2829.1741 717.62108,2829.1741 C717.396318,2829.1741 717.182517,2829.27121 717.03464,2829.44048 L718.20752,2829.44048 Z M710.28,2835.84048 L710.28,2835.52048 L709.72,2835.52048 L709.72,2835.84048 L710.28,2835.84048 Z M720.2,2835.84048 L720.2,2835.52048 L719.72,2835.52048 L719.72,2835.84048 L720.2,2835.84048 Z M720.93344,2834.21 L721.32488,2831.24776 C721.3116,2830.91608 721.08856,2830.56728 720.7356,2830.56728 C720.73352,2830.56728 720.73152,2830.56048 720.72944,2830.56048 L709.20624,2830.56048 C709.1932,2830.56048 709.18056,2830.56536 709.16768,2830.56448 C708.84808,2830.59264 708.648,2830.93248 708.63584,2831.25248 L709.01088,2834.22176 C709.013827,2834.24741 709.015297,2834.27322 709.01528,2834.29904 C709.015544,2834.34972 709.052563,2834.3927 709.10264,2834.40048 L720.84128,2834.40048 C720.891538,2834.39229 720.928478,2834.34892 720.92856,2834.298 C720.928595,2834.2686 720.930224,2834.23922 720.93344,2834.21 Z M716.92424,2832.48048 L716.92464,2832.48048 C717.233919,2832.48048 717.48464,2832.7312 717.48464,2833.04048 C717.48464,2833.34976 717.233919,2833.60048 716.92464,2833.60048 L713.03664,2833.60048 C712.727361,2833.60048 712.47664,2833.34976 712.47664,2833.04048 C712.47664,2832.7312 712.727361,2832.48048 713.03664,2832.48048 L716.92424,2832.48048 Z M710.34856,2831.31472 C711.126253,2831.3156 711.756478,2831.94583 711.75736,2832.72352 C711.75736,2833.50158 711.126619,2834.13232 710.34856,2834.13232 C709.570501,2834.13232 708.93976,2833.50158 708.93976,2832.72352 C708.93976,2831.94546 709.570501,2831.31472 710.34856,2831.31472 Z M710.34856,2833.01232 C710.507987,2833.01214 710.637184,2832.88295 710.63736,2832.72352 C710.63736,2832.56402 710.50806,2832.43472 710.34856,2832.43472 C710.18906,2832.43472 710.05976,2832.56402 710.05976,2832.72352 C710.05976,2832.88302 710.18906,2833.01232 710.34856,2833.01232 Z M719.61224,2831.31472 C720.389964,2831.31556 721.020238,2831.94579 721.02112,2832.72352 C721.02112,2833.50157 720.390395,2834.13232 719.612347,2834.13232 C718.834298,2834.13232 718.203549,2833.50162 718.20352,2832.72357 C718.203491,2831.94552 718.834192,2831.31476 719.61224,2831.31472 Z M719.61224,2833.01232 C719.771698,2833.01219 719.900944,2832.88298 719.90112,2832.72352 C719.90112,2832.56403 719.771836,2832.43473 719.612347,2832.43472 C719.452857,2832.4347 719.323549,2832.56398 719.32352,2832.72347 C719.323491,2832.88296 719.452751,2833.01228 719.61224,2833.01232 Z M726.69808,2840.0836 C726.247676,2840.08661 725.883791,2840.45193 725.88254,2840.90234 C725.881289,2841.35275 726.24314,2841.72008 726.69352,2841.7256 C727.656773,2841.72717 728.472896,2842.43548 728.610034,2843.38892 C728.747172,2844.34236 728.16376,2845.25197 727.24,2845.52496 L727.24,2845.86896 C727.24,2846.17824 726.989279,2846.42896 726.68,2846.42896 C726.370721,2846.42896 726.12,2846.17824 726.12,2845.86896 L726.12,2845.52496 C725.30228,2845.27672 724.744444,2844.5212 724.74789,2843.66664 C724.752299,2843.3557 725.005906,2843.10608 725.31688,2843.10664 C725.626159,2843.10664 725.87688,2843.35736 725.87688,2843.66664 C725.877372,2844.1161 726.238971,2844.48173 726.6884,2844.4872 C726.6916,2844.48712 726.6944,2844.48672 726.69752,2844.48672 C726.70064,2844.48672 726.70312,2844.4872 726.70624,2844.4872 C727.159555,2844.48369 727.524193,2844.11335 727.52068,2843.66004 C727.517167,2843.20672 727.146835,2842.84209 726.69352,2842.8456 C725.731557,2842.84708 724.913405,2842.14425 724.769819,2841.19306 C724.626233,2840.24188 725.200466,2839.32886 726.12,2839.04632 L726.12,2838.76488 C726.12,2838.4556 726.370721,2838.20488 726.68,2838.20488 C726.989279,2838.20488 727.24,2838.4556 727.24,2838.76488 L727.24,2839.04632 C728.061589,2839.29257 728.625783,2840.04679 728.63,2840.90448 C728.63214,2841.05208 728.575072,2841.19439 728.471544,2841.29961 C728.368016,2841.40484 728.226656,2841.46422 728.07904,2841.46448 C727.769761,2841.46448 727.51904,2841.21376 727.51904,2840.90448 C727.518467,2840.45133 727.151233,2840.08413 726.69808,2840.0836 Z" id="Combined-Shape-7"></path>
        </g>
    </g>
</svg>