<?xml version="1.0" encoding="UTF-8"?>
<svg width="41px" height="39px" viewBox="0 0 41 39" version="1.1" xmlns="http://www.w3.org/2000/svg" xmlns:xlink="http://www.w3.org/1999/xlink">
    <!-- Generator: sketchtool 56.3 (101010) - https://sketch.com -->
    <title>3418575B-68FE-4183-9B01-E38A9EB97FCA</title>
    <desc>Created with sketchtool.</desc>
    <g id="Style-guide" stroke="none" stroke-width="1" fill="none" fill-rule="evenodd">
        <g id="00-Styleguide" transform="translate(-897.000000, -2819.000000)" fill="#D18B2F" fill-rule="nonzero">
            <path d="M937.545789,2838.49262 C937.744724,2838.69156 937.804344,2838.99072 937.696816,2839.25049 C937.589135,2839.51057 937.335447,2839.68 937.054078,2839.68 L932.100618,2839.68 L932.100618,2856.61825 C932.100618,2857.00243 931.789135,2857.31392 931.404952,2857.31392 L904.126778,2857.31392 C903.742595,2857.31392 903.431112,2857.00243 903.431112,2856.61825 L903.431112,2839.68 L898.477044,2839.67954 C898.195675,2839.67939 897.942139,2839.50996 897.834458,2839.25004 C897.726778,2838.99011 897.786397,2838.69095 897.985333,2838.49202 L917.273546,2819.2038 C917.40404,2819.07331 917.580922,2819 917.765409,2819 C917.949895,2819 918.12693,2819.07331 918.257272,2819.2038 L937.545789,2838.49262 Z M931.404952,2838.28882 L935.374838,2838.28882 L917.765561,2820.67954 L900.156435,2838.28852 L904.12693,2838.28882 C904.511112,2838.28897 904.822443,2838.6003 904.822443,2838.98449 L904.822443,2855.92274 L930.709287,2855.92274 L930.709287,2838.98449 C930.709287,2838.6003 931.02077,2838.28882 931.404952,2838.28882 Z M917.0702,2834.85095 C917.0702,2834.46677 917.381682,2834.15544 917.765865,2834.15513 C918.150047,2834.15513 918.46153,2834.46662 918.46153,2834.8508 L918.46153,2835.76319 C920.672785,2836.04243 922.372557,2837.63163 922.372557,2839.54433 C922.372557,2839.92852 922.061074,2840.24 921.676892,2840.24 C921.292709,2840.24 920.981226,2839.92852 920.981226,2839.54433 C920.981226,2838.38327 919.90077,2837.41125 918.46153,2837.16973 L918.46153,2842.02175 C920.672785,2842.30099 922.372557,2843.89019 922.372557,2845.80304 C922.372557,2847.71544 920.672785,2849.30433 918.46153,2849.58357 L918.46153,2850.49658 C918.46153,2850.88076 918.150047,2851.19224 917.765865,2851.19224 C917.381682,2851.19224 917.0702,2850.88076 917.0702,2850.49658 L917.0702,2849.58357 C914.858489,2849.30433 913.15826,2847.71544 913.15826,2845.80304 C913.15826,2845.41886 913.469743,2845.10738 913.853926,2845.10738 C914.238108,2845.10738 914.549591,2845.41886 914.549591,2845.80304 C914.549591,2846.96365 915.630352,2847.93567 917.0702,2848.17703 L917.0702,2843.32578 C914.858489,2843.04654 913.15826,2841.45734 913.15826,2839.54449 C913.15826,2837.63179 914.858489,2836.04243 917.0702,2835.76319 L917.0702,2834.85095 Z M914.549591,2839.54449 C914.549591,2840.70555 915.630504,2841.67802 917.0702,2841.91939 L917.0702,2837.16989 C915.630352,2837.41125 914.549591,2838.38342 914.549591,2839.54449 Z M920.981226,2845.80319 C920.981226,2844.64228 919.90077,2843.66996 918.46153,2843.42844 L918.46153,2848.17703 C919.90077,2847.93567 920.981226,2846.9638 920.981226,2845.80319 Z" id="Combined-Shape-4"></path>
        </g>
    </g>
</svg>