<?xml version="1.0" encoding="UTF-8"?>
<svg width="41px" height="40px" viewBox="0 0 41 40" version="1.1" xmlns="http://www.w3.org/2000/svg" xmlns:xlink="http://www.w3.org/1999/xlink">
    <!-- Generator: sketchtool 56.3 (101010) - https://sketch.com -->
    <title>EF59F743-AC5C-4BE6-9BF1-02C2F74937F3</title>
    <desc>Created with sketchtool.</desc>
    <g id="Style-guide" stroke="none" stroke-width="1" fill="none" fill-rule="evenodd">
        <g id="00-Styleguide" transform="translate(-1000.000000, -2818.000000)" fill="#D18B2F" fill-rule="nonzero">
            <path d="M1007.75951,2837.99028 C1007.75951,2830.83286 1013.58252,2825.00972 1020.73994,2825.00972 C1027.89735,2825.00972 1033.72037,2830.83286 1033.72037,2837.99028 C1033.72037,2845.14769 1027.89735,2850.97083 1020.73994,2850.97083 C1013.58252,2850.97083 1007.75951,2845.14769 1007.75951,2837.99028 Z M1031.87422,2837.99028 C1031.87422,2831.85071 1026.87938,2826.85588 1020.73994,2826.85588 C1014.60049,2826.85588 1009.60566,2831.85071 1009.60566,2837.99028 C1009.60566,2844.12985 1014.60049,2849.12468 1020.73994,2849.12468 C1026.87938,2849.12468 1031.87422,2844.12985 1031.87422,2837.99028 Z M1019.90942,2830.71692 L1021.75545,2830.71692 L1021.75545,2832.16394 C1022.0192,2832.21957 1022.28689,2832.29686 1022.55815,2832.39815 C1023.608,2832.79003 1024.33625,2833.38745 1024.41575,2833.45428 L1023.82203,2834.16111 L1023.23089,2834.87003 C1023.22523,2834.86535 1022.65046,2834.39397 1021.8704,2834.11225 C1020.95102,2833.78043 1020.19028,2833.85058 1019.54474,2834.32689 C1018.93514,2834.77686 1018.63938,2835.31458 1018.75372,2835.76542 C1018.8608,2836.18782 1019.31508,2836.49477 1019.96911,2836.58634 C1021.28209,2836.77034 1022.53957,2836.97797 1023.49218,2837.48935 C1024.72135,2838.14917 1025.27926,2839.24972 1025.10548,2840.672 C1024.95237,2841.92517 1024.16849,2842.92677 1022.95471,2843.42018 C1022.57735,2843.57366 1022.17415,2843.67237 1021.75532,2843.72086 L1021.75532,2845.26326 L1019.90917,2845.26326 L1019.90917,2843.62388 C1018.80308,2843.39335 1017.68074,2842.86486 1016.68738,2842.06658 L1017.84382,2840.62745 C1019.48677,2841.94769 1021.24517,2842.12271 1022.25945,2841.71015 C1022.85945,2841.46634 1023.20037,2841.0416 1023.27286,2840.44837 C1023.40898,2839.33502 1022.89157,2838.86031 1019.71286,2838.41489 C1018.31089,2838.21834 1017.25772,2837.37698 1016.96418,2836.21932 C1016.65908,2835.01551 1017.21391,2833.75286 1018.44849,2832.84172 C1018.89969,2832.50855 1019.38991,2832.28295 1019.90942,2832.16295 L1019.90942,2830.71692 Z M1020.73994,2819.84615 C1010.73526,2819.84615 1002.59582,2827.9856 1002.59582,2837.99028 L1000.74966,2837.99028 C1000.74966,2826.96763 1009.71729,2818 1020.73994,2818 C1025.35495,2818 1029.7328,2819.55545 1033.27422,2822.41612 L1033.27422,2819.36394 L1035.12037,2819.36394 L1035.12037,2825.30425 L1029.18006,2825.30425 L1029.18006,2823.45809 L1031.60763,2823.45809 C1028.48726,2821.11471 1024.7104,2819.84615 1020.73994,2819.84615 Z M1038.88406,2837.99028 L1040.73022,2837.99028 C1040.73022,2849.01305 1031.76271,2857.98055 1020.73994,2857.98055 C1016.2336,2857.98055 1011.94092,2856.49071 1008.43988,2853.74942 L1008.43988,2856.80209 L1006.59372,2856.80209 L1006.59372,2850.86178 L1012.53403,2850.86178 L1012.53403,2852.70794 L1010.12382,2852.70794 C1013.19643,2854.93231 1016.88209,2856.1344 1020.73994,2856.1344 C1030.74462,2856.1344 1038.88406,2847.99495 1038.88406,2837.99028 Z" id="Combined-Shape-1"></path>
        </g>
    </g>
</svg>