<?xml version="1.0" encoding="UTF-8"?>
<svg width="40px" height="44px" viewBox="0 0 40 44" version="1.1" xmlns="http://www.w3.org/2000/svg" xmlns:xlink="http://www.w3.org/1999/xlink">
    <!-- Generator: sketchtool 56.3 (101010) - https://sketch.com -->
    <title>0E2F0F63-0274-4BB8-9EFD-670B96B109DA</title>
    <desc>Created with sketchtool.</desc>
    <g id="Style-guide" stroke="none" stroke-width="1" fill="none" fill-rule="evenodd">
        <g id="00-Styleguide" transform="translate(-795.000000, -2816.000000)" fill="#D18B2F" fill-rule="nonzero">
            <path d="M817.577184,2821.29474 L816.461047,2820.9308 C814.397529,2820.25795 812.172665,2820.26428 810.113012,2820.94888 L797.62799,2825.09869 C797.576522,2836.69246 798.416611,2844.33215 800.099333,2847.92444 C801.795369,2851.54516 804.238685,2853.44846 809.844366,2856.2796 C810.034925,2856.37585 811.241712,2856.98218 811.596656,2857.16204 C812.231698,2857.48383 812.761248,2857.75751 813.266415,2858.02673 C813.366513,2857.96892 813.474453,2857.90663 813.59492,2857.83716 C813.966918,2857.6227 814.166981,2857.50735 814.340433,2857.40723 C814.946415,2857.05742 815.397025,2856.7955 815.838744,2856.53546 C821.170555,2853.39665 824.16085,2850.99015 825.97603,2847.85873 C827.655768,2844.96096 828.702803,2840.12262 829.094531,2833.36775 C828.069554,2833.77456 826.952191,2833.9987 825.782614,2834 C820.810942,2834 816.781505,2829.97056 816.781505,2825 C816.781505,2823.67914 817.066049,2822.42473 817.577184,2821.29474 Z M830.846384,2832.43642 C830.491266,2839.9833 829.366892,2845.39887 827.446796,2848.71128 C825.44242,2852.16909 822.270198,2854.722 816.701178,2858.00045 C816.254529,2858.26339 815.800144,2858.52751 815.190333,2858.87953 C815.016419,2858.97992 814.815871,2859.09555 814.444205,2859.30981 C814.145019,2859.48236 813.923603,2859.61028 813.707787,2859.73538 C813.451436,2859.88398 813.136201,2859.88836 812.87582,2859.74694 C812.77962,2859.69469 812.682213,2859.64216 812.583417,2859.58924 C812.054736,2859.30606 811.503049,2859.02041 810.828246,2858.67847 C810.476483,2858.50022 809.271089,2857.89458 809.07798,2857.79705 C803.157212,2854.80678 800.462718,2852.70781 798.559861,2848.64557 C796.704791,2844.68534 795.845853,2836.66236 795.931526,2824.47835 C795.934085,2824.11442 796.168045,2823.7925 796.513401,2823.67771 L809.576804,2819.33566 C811.981424,2818.5364 814.578925,2818.529 816.988058,2819.31455 L818.44276,2819.78888 C820.073986,2817.49579 822.753065,2816 825.781505,2816 C830.752068,2816 834.781505,2820.02944 834.781505,2825.00111 C834.778078,2828.0908 833.2195,2830.8161 830.846384,2832.43642 Z M832.781505,2825 C832.781505,2821.13401 829.647498,2818 825.781505,2818 C821.915512,2818 818.781505,2821.13401 818.781505,2825 C818.781505,2828.86581 821.915212,2831.9997 825.780951,2832 C829.645525,2831.99541 832.777219,2828.86353 832.781505,2825 Z M828.668299,2822.20312 C828.835334,2822.03017 829.082688,2821.96082 829.315289,2822.0217 C829.547891,2822.08258 829.729543,2822.26423 829.790426,2822.49684 C829.85131,2822.72944 829.78195,2822.97679 829.609006,2823.14383 L824.904806,2827.84803 C824.645014,2828.10774 824.223891,2828.10774 823.964099,2827.84803 L821.968257,2825.85218 C821.716135,2825.59114 821.71974,2825.1762 821.976362,2824.91958 C822.232983,2824.66296 822.647922,2824.65935 822.908964,2824.91148 L824.434453,2826.43696 L828.668299,2822.20312 Z M812.164181,2832.07173 C812.164181,2831.47977 812.681076,2831 813.3184,2831 C813.955723,2831 814.472618,2831.47977 814.472618,2832.07173 L814.472618,2833.3197 C815.000338,2833.48214 815.586693,2833.77979 816.172598,2834.30603 C816.630406,2834.71756 816.642584,2835.39576 816.199209,2835.8211 C815.755834,2836.24602 815.025145,2836.25733 814.566886,2835.8458 C814.159143,2835.47949 813.727495,2835.28565 813.3184,2835.28565 C812.681978,2835.28565 812.164181,2835.76668 812.164181,2836.35738 C812.164181,2836.94809 812.681978,2837.42869 813.3184,2837.42869 C815.228114,2837.42869 816.781505,2838.8705 816.781505,2840.64304 C816.781505,2842.03963 815.816274,2843.23067 814.472618,2843.67318 L814.472618,2844.92869 C814.472618,2845.52065 813.955723,2846 813.3184,2846 C812.681076,2846 812.164181,2845.52065 812.164181,2844.92869 L812.164181,2843.6782 C811.395154,2843.43874 810.669426,2842.964 810.052399,2842.28286 C809.641951,2841.82989 809.705097,2841.1542 810.193125,2840.77323 C810.681153,2840.39269 811.409136,2840.45088 811.819585,2840.90385 C812.292728,2841.42674 812.82541,2841.71435 813.3184,2841.71435 C813.954821,2841.71435 814.472618,2841.23374 814.472618,2840.64304 C814.472618,2840.05233 813.954821,2839.57173 813.3184,2839.57173 C811.408685,2839.57173 809.855294,2838.1295 809.855294,2836.35738 C809.855294,2834.96037 810.820525,2833.76933 812.164181,2833.32724 L812.164181,2832.07173 Z" id="Combined-Shape-6"></path>
        </g>
    </g>
</svg>